<svg aria-hidden="true" style="position: absolute; width: 0; height: 0; overflow: hidden;" version="1.1" xmlns="http://www.w3.org/2000/svg" xmlns:xlink="http://www.w3.org/1999/xlink">
<defs>
<symbol id="icon-icon-close-black-18dp" viewBox="0 0 32 32">
<path d="M7.057 7.057c0.241-0.241 0.575-0.39 0.943-0.39s0.701 0.149 0.943 0.39l7.057 7.057 7.057-7.057c0.243-0.251 0.583-0.407 0.959-0.407 0.736 0 1.333 0.597 1.333 1.333 0 0.376-0.156 0.716-0.407 0.959l-7.058 7.058 7.057 7.057c0.232 0.24 0.374 0.566 0.374 0.926 0 0.736-0.597 1.333-1.333 1.333-0.36 0-0.687-0.143-0.927-0.375l-7.057-7.057-7.057 7.057c-0.24 0.232-0.566 0.374-0.926 0.374-0.736 0-1.333-0.597-1.333-1.333 0-0.36 0.143-0.687 0.375-0.927l7.057-7.057-7.057-7.057c-0.241-0.241-0.39-0.575-0.39-0.943s0.149-0.701 0.39-0.943v0z"></path>
</symbol>
</defs>
</svg>
